<?xml version="1.0" encoding="UTF-8" standalone="no"?>
<!DOCTYPE svg PUBLIC "-//W3C//DTD SVG 1.1//EN" "http://www.w3.org/Graphics/SVG/1.1/DTD/svg11.dtd">
<svg xmlns="http://www.w3.org/2000/svg" version="1.1" viewBox="0.00 0.00 260.00 280.00">
<g fill="#020202">
<path d="
  M 180.22 50.34
  A 0.64 0.64 0.0 0 1 179.79 49.54
  L 182.18 41.61
  A 3.54 3.02 -73.2 0 1 186.09 39.10
  L 186.29 39.15
  A 3.54 3.02 -73.2 0 1 188.15 43.42
  L 185.76 51.34
  A 0.64 0.64 0.0 0 1 184.96 51.77
  L 180.22 50.34
  Z"
/>
<path d="
  M 179.91 52.49
  L 184.02 53.65
  A 0.40 0.40 0.0 0 1 184.30 54.15
  L 149.37 178.36
  A 0.40 0.40 0.0 0 1 148.88 178.63
  L 140.00 176.14
  A 0.40 0.40 0.0 0 1 139.73 175.63
  L 179.42 52.76
  A 0.40 0.40 0.0 0 1 179.91 52.49
  Z"
/>
<path d="
  M 136.06 177.72
  L 133.69 185.05
  A 0.76 0.75 9.0 0 1 132.97 185.57
  Q 125.43 185.53 75.63 185.60
  Q 64.55 185.61 62.54 184.97
  C 54.30 182.32 50.62 172.35 55.45 164.70
  Q 62.69 153.25 119.28 64.54
  C 123.38 58.12 131.23 56.37 137.77 60.30
  Q 140.08 61.69 143.02 66.39
  Q 159.58 92.87 162.00 96.69
  A 0.70 0.68 -53.1 0 1 162.07 97.25
  L 159.26 105.95
  A 0.09 0.09 0.0 0 1 159.10 105.97
  Q 152.58 95.95 149.68 91.01
  Q 147.02 86.49 144.07 82.21
  Q 142.85 80.44 138.34 73.41
  C 134.67 67.67 126.24 67.82 122.53 73.53
  Q 98.58 110.43 66.21 160.73
  Q 63.48 164.97 63.19 166.81
  C 62.51 171.15 65.08 175.66 69.26 177.25
  Q 70.81 177.84 75.32 177.84
  Q 110.10 177.84 131.28 177.82
  C 132.95 177.81 134.24 177.29 135.54 177.10
  A 0.48 0.48 0.0 0 1 136.06 177.72
  Z"
/>
<path d="
  M 122.83 78.37
  C 123.95 75.93 126.02 72.78 129.11 72.18
  C 133.19 71.38 136.36 74.32 137.93 78.00
  A 0.32 0.32 0.0 0 1 137.53 78.43
  Q 129.77 75.65 123.23 78.76
  A 0.30 0.30 0.0 0 1 122.83 78.37
  Z"
/>
<circle cx="130.62" cy="96.34" r="16.32"/>
<path d="
  M 102.00 111.19
  A 0.21 0.21 0.0 0 1 101.71 110.91
  L 110.96 96.60
  A 0.32 0.31 61.0 0 1 111.54 96.77
  Q 111.60 101.54 113.48 104.61
  Q 113.85 105.20 115.00 107.30
  A 0.45 0.45 0.0 0 1 114.56 107.97
  Q 107.95 107.23 102.00 111.19
  Z"
/>
<path d="
  M 146.42 107.43
  C 148.11 104.16 149.70 101.28 149.72 97.64
  A 0.32 0.31 28.6 0 1 150.30 97.47
  L 157.90 109.42
  A 0.42 0.42 0.0 0 1 157.35 110.01
  Q 152.39 107.37 146.80 107.98
  A 0.38 0.38 0.0 0 1 146.42 107.43
  Z"
/>
<circle cx="112.78" cy="127.02" r="16.34"/>
<path d="
  M 147.49 142.42
  A 1.33 1.33 0.0 0 1 145.82 143.28
  L 143.63 142.58
  A 16.39 16.17 17.8 0 1 132.96 122.17
  L 133.06 121.89
  A 16.39 16.17 17.8 0 1 153.60 111.50
  L 155.79 112.20
  A 1.33 1.33 0.0 0 1 156.65 113.88
  L 147.49 142.42
  Z"
/>
<path d="
  M 170.97 112.01
  A 0.33 0.32 -53.4 0 1 171.56 111.92
  Q 197.20 152.94 201.81 160.12
  Q 206.32 167.14 206.72 169.96
  C 207.61 176.33 204.03 182.47 197.76 184.85
  Q 195.55 185.69 190.16 185.59
  Q 187.05 185.53 150.82 185.58
  A 0.39 0.39 0.0 0 1 150.44 185.08
  L 153.67 173.58
  A 0.38 0.38 0.0 0 1 154.30 173.41
  C 157.45 176.31 162.59 177.83 167.01 177.83
  Q 181.57 177.81 184.34 177.86
  Q 189.64 177.94 191.53 176.92
  C 196.36 174.30 198.51 168.31 195.48 163.49
  Q 184.27 145.63 168.77 121.32
  A 1.21 1.21 0.0 0 1 168.63 120.34
  L 170.97 112.01
  Z"
/>
<path d="
  M 132.99 115.54
  Q 133.01 115.58 133.03 115.62
  A 0.26 0.07 66.0 0 1 133.06 115.81
  L 131.00 119.48
  A 0.28 0.28 0.0 0 1 130.51 119.47
  Q 130.02 118.50 129.49 117.59
  Q 128.96 116.68 128.35 115.78
  A 0.28 0.28 0.0 0 1 128.58 115.34
  L 132.79 115.35
  A 0.26 0.07 53.4 0 1 132.94 115.47
  Q 132.97 115.51 132.99 115.54
  Z"
/>
<path d="
  M 83.58 175.01
  Q 75.10 174.93 71.27 174.78
  Q 69.31 174.71 67.71 172.78
  C 64.19 168.54 66.54 165.38 69.41 160.96
  Q 73.38 154.85 93.39 123.83
  A 0.25 0.25 0.0 0 1 93.84 124.00
  Q 92.54 132.57 98.12 139.33
  A 0.21 0.21 0.0 0 1 97.92 139.67
  C 77.98 136.56 67.00 161.97 83.80 174.37
  A 0.36 0.35 -26.4 0 1 83.58 175.01
  Z"
/>
<path d="
  M 180.16 145.01
  Q 172.81 138.39 164.00 139.64
  A 0.54 0.54 0.0 0 1 163.41 138.96
  L 167.26 125.24
  A 0.34 0.33 36.9 0 1 167.86 125.16
  L 180.37 144.83
  A 0.14 0.14 0.0 0 1 180.16 145.01
  Z"
/>
<path d="
  M 130.70 134.50
  Q 130.75 134.50 130.79 134.51
  A 0.30 0.16 -0.2 0 1 130.97 134.60
  L 133.59 139.11
  A 0.32 0.32 0.0 0 1 133.27 139.59
  Q 131.95 139.43 130.65 139.42
  Q 129.36 139.40 128.03 139.54
  A 0.32 0.32 0.0 0 1 127.72 139.05
  L 130.43 134.59
  A 0.30 0.16 1.2 0 1 130.61 134.50
  Q 130.65 134.50 130.70 134.50
  Z"
/>
<circle cx="94.70" cy="158.64" r="16.33"/>
<path d="
  M 141.11 162.08
  Q 137.71 172.57 137.58 172.95
  A 1.19 1.18 88.7 0 1 136.93 173.63
  C 124.11 178.95 110.56 167.12 114.94 153.59
  C 119.33 140.07 137.25 138.43 144.50 150.27
  A 1.19 1.18 -52.8 0 1 144.63 151.20
  Q 144.52 151.58 141.11 162.08
  Z"
/>
<path d="
  M 182.34 163.04
  Q 180.70 168.90 175.97 171.95
  Q 165.22 178.92 155.20 170.35
  A 0.99 0.98 28.1 0 1 154.89 169.34
  Q 155.30 167.81 158.51 156.36
  Q 161.73 144.91 162.16 143.39
  A 0.99 0.98 3.2 0 1 162.96 142.69
  Q 175.97 140.58 181.53 152.12
  Q 183.98 157.19 182.34 163.04
  Z"
/>
<path d="
  M 112.59 146.21
  Q 113.90 146.21 115.25 146.06
  A 0.33 0.33 0.0 0 1 115.57 146.55
  L 112.87 151.11
  A 0.31 0.17 0.6 0 1 112.69 151.21
  Q 112.64 151.21 112.59 151.21
  Q 112.54 151.21 112.50 151.21
  A 0.31 0.17 -0.8 0 1 112.32 151.11
  L 109.60 146.56
  A 0.33 0.33 0.0 0 1 109.92 146.06
  Q 111.27 146.21 112.59 146.21
  Z"
/>
<path d="
  M 145.91 146.01
  A 0.41 0.39 49.5 0 1 145.87 146.75
  Q 145.50 146.86 145.30 146.60
  Q 144.95 146.15 145.40 145.93
  Q 145.59 145.83 145.91 146.01
  Z"
/>
<path d="
  M 185.40 152.63
  Q 188.40 157.60 191.84 162.93
  Q 193.54 165.58 193.73 166.31
  C 195.13 171.68 191.31 175.11 186.12 174.95
  Q 182.14 174.82 177.61 175.08
  A 0.32 0.32 0.0 0 1 177.40 174.51
  Q 188.31 166.33 184.93 152.82
  A 0.26 0.26 0.0 0 1 185.40 152.63
  Z"
/>
<path d="
  M 112.62 165.98
  Q 112.66 165.98 112.71 166.00
  A 0.39 0.09 67.9 0 1 112.90 166.26
  Q 115.05 171.03 119.77 174.67
  A 0.24 0.24 0.0 0 1 119.60 175.10
  Q 117.39 174.92 112.60 174.91
  Q 107.82 174.91 105.60 175.07
  A 0.24 0.24 0.0 0 1 105.43 174.65
  Q 110.16 171.02 112.33 166.26
  A 0.39 0.09 -67.8 0 1 112.52 166.00
  Q 112.57 165.98 112.62 165.98
  Z"
/>
<path d="
  M 147.44 181.26
  A 1.43 1.43 0.0 0 1 148.39 183.04
  L 138.20 217.00
  A 5.67 5.44 -73.3 0 1 131.36 220.87
  L 131.33 220.86
  A 5.67 5.44 -73.3 0 1 127.74 213.86
  L 137.93 179.90
  A 1.43 1.43 0.0 0 1 139.72 178.94
  L 147.44 181.26
  Z"
/>
</g>
</svg>
