<?xml version="1.0" encoding="UTF-8" standalone="no"?>
<!DOCTYPE svg PUBLIC "-//W3C//DTD SVG 1.1//EN" "http://www.w3.org/Graphics/SVG/1.1/DTD/svg11.dtd">
<svg xmlns="http://www.w3.org/2000/svg" version="1.1" viewBox="0.00 0.00 600.00 600.00">
<g fill="#ffffff">
<path d="
  M 184.10 300.19
  A 57.68 57.68 0.0 0 1 126.42 357.87
  A 57.68 57.68 0.0 0 1 68.74 300.19
  A 57.68 57.68 0.0 0 1 126.42 242.51
  A 57.68 57.68 0.0 0 1 184.10 300.19
  Z
  M 134.16 269.83
  A 0.42 0.42 0.0 0 0 133.81 269.19
  L 105.06 269.19
  A 0.42 0.42 0.0 0 0 104.71 269.39
  L 100.64 275.81
  A 0.42 0.42 0.0 0 0 100.99 276.45
  L 129.74 276.45
  A 0.42 0.42 0.0 0 0 130.09 276.25
  L 134.16 269.83
  Z
  M 140.32 283.19
  A 0.37 0.37 0.0 0 1 140.94 283.19
  L 145.38 290.21
  A 0.37 0.37 0.0 0 1 145.07 290.78
  L 141.51 290.78
  A 0.37 0.37 0.0 0 0 141.20 290.95
  L 137.03 297.53
  A 0.37 0.37 0.0 0 0 137.34 298.10
  L 150.11 298.10
  A 0.37 0.37 0.0 0 1 150.42 298.27
  L 154.75 305.13
  A 0.37 0.37 0.0 0 0 155.06 305.30
  L 162.90 305.30
  A 0.37 0.37 0.0 0 0 163.21 304.73
  L 140.88 269.39
  A 0.37 0.37 0.0 0 0 140.26 269.39
  L 122.23 297.88
  A 0.37 0.37 0.0 0 1 121.92 298.05
  L 102.74 298.05
  A 0.37 0.37 0.0 0 1 102.43 297.48
  L 106.54 290.97
  A 0.37 0.37 0.0 0 1 106.85 290.80
  L 119.01 290.80
  A 0.37 0.37 0.0 0 0 119.32 290.63
  L 123.42 284.15
  A 0.37 0.37 0.0 0 0 123.11 283.58
  L 95.95 283.58
  A 0.37 0.37 0.0 0 0 95.64 283.75
  L 91.51 290.28
  A 0.37 0.37 0.0 0 0 91.82 290.85
  L 97.19 290.85
  A 0.37 0.37 0.0 0 1 97.50 291.42
  L 89.05 304.76
  A 0.37 0.37 0.0 0 0 89.36 305.33
  L 126.11 305.33
  A 0.37 0.37 0.0 0 0 126.42 305.16
  L 140.32 283.19
  Z
  M 93.53 317.94
  Q 94.21 317.97 94.89 318.04
  Q 96.79 318.23 95.97 321.02
  A 1.24 1.23 2.2 0 1 95.03 321.88
  Q 91.72 322.58 90.82 320.38
  A 1.31 1.16 40.1 0 0 88.42 320.45
  C 87.88 325.29 93.31 324.78 96.31 324.38
  A 2.81 2.79 -86.3 0 0 98.62 322.33
  Q 99.14 320.41 98.74 317.93
  C 98.29 315.23 95.96 315.48 93.71 315.38
  Q 93.02 315.32 92.35 315.25
  Q 90.45 315.06 91.27 312.27
  A 1.24 1.23 2.2 0 1 92.20 311.41
  Q 95.52 310.71 96.41 312.91
  A 1.31 1.16 40.1 0 0 98.81 312.84
  C 99.36 308.00 93.92 308.51 90.93 308.92
  A 2.81 2.79 -86.3 0 0 88.61 310.96
  Q 88.09 312.88 88.50 315.36
  C 88.94 318.06 91.27 317.81 93.53 317.94
  Z
  M 105.31 318.82
  L 109.62 318.82
  A 2.67 2.66 -83.8 0 0 112.22 316.72
  C 112.75 314.23 113.15 309.26 109.46 309.00
  Q 107.45 308.86 102.55 308.89
  A 0.52 0.51 -0.0 0 0 102.03 309.40
  L 102.03 323.77
  A 0.85 0.84 0.0 0 0 102.88 324.61
  L 104.01 324.61
  A 0.83 0.83 0.0 0 0 104.84 323.78
  L 104.84 319.29
  A 0.47 0.47 0.0 0 1 105.31 318.82
  Z
  M 158.82 317.97
  Q 159.50 318.01 160.17 318.08
  Q 162.08 318.27 161.25 321.06
  A 1.24 1.23 2.3 0 1 160.31 321.92
  Q 156.99 322.61 156.10 320.41
  A 1.31 1.17 40.2 0 0 153.70 320.47
  C 153.14 325.31 158.58 324.82 161.58 324.42
  A 2.81 2.79 -86.2 0 0 163.90 322.38
  Q 164.43 320.46 164.03 317.98
  C 163.59 315.27 161.26 315.52 159.00 315.41
  Q 158.32 315.35 157.64 315.28
  Q 155.74 315.08 156.57 312.29
  A 1.24 1.23 2.3 0 1 157.51 311.43
  Q 160.83 310.74 161.72 312.94
  A 1.31 1.17 40.2 0 0 164.12 312.88
  C 164.68 308.04 159.24 308.53 156.24 308.93
  A 2.81 2.79 -86.2 0 0 153.92 310.97
  Q 153.39 312.89 153.79 315.37
  C 154.22 318.08 156.56 317.83 158.82 317.97
  Z
  M 125.6559 312.1881
  A 3.23 3.23 0.0 0 0 122.4372 308.9469
  L 118.5172 308.9332
  A 3.23 3.23 0.0 0 0 115.2760 312.1519
  L 115.2441 321.2919
  A 3.23 3.23 0.0 0 0 118.4628 324.5331
  L 122.3828 324.5468
  A 3.23 3.23 0.0 0 0 125.6240 321.3281
  L 125.6559 312.1881
  Z
  M 131.77 323.82
  L 131.77 319.74
  A 1.31 1.31 0.0 0 1 134.22 319.09
  L 136.91 323.76
  A 1.91 1.90 -15.0 0 0 138.56 324.71
  L 138.96 324.71
  A 0.87 0.87 0.0 0 0 139.71 323.40
  L 137.20 319.06
  A 0.83 0.81 -30.7 0 1 137.49 317.95
  Q 139.58 316.68 139.30 312.75
  C 139.00 308.62 136.32 308.92 133.02 308.92
  Q 129.89 308.91 129.51 308.94
  A 0.60 0.59 88.4 0 0 128.96 309.53
  L 128.90 323.70
  A 0.84 0.84 0.0 0 0 129.74 324.54
  L 131.05 324.54
  A 0.72 0.72 0.0 0 0 131.77 323.82
  Z
  M 146.25 324.58
  Q 146.63 324.58 147.22 324.44
  A 0.60 0.59 -7.0 0 0 147.68 323.87
  L 147.68 312.10
  A 0.59 0.59 0.0 0 1 148.27 311.51
  L 150.81 311.51
  A 0.90 0.90 0.0 0 0 151.71 310.61
  L 151.71 309.93
  A 1.00 1.00 0.0 0 0 150.71 308.93
  Q 148.72 308.92 146.28 308.92
  Q 143.85 308.91 141.85 308.91
  A 1.00 1.00 0.0 0 0 140.85 309.90
  L 140.85 310.58
  A 0.90 0.90 0.0 0 0 141.74 311.49
  L 144.28 311.50
  A 0.59 0.59 0.0 0 1 144.87 312.09
  L 144.81 323.86
  A 0.60 0.59 7.3 0 0 145.27 324.44
  Q 145.86 324.58 146.25 324.58
  Z
  M 165.68 310.25
  A 0.18 0.18 0.0 0 0 165.60 309.90
  Q 165.36 309.93 165.28 310.00
  A 0.13 0.13 0.0 0 0 165.35 310.22
  Q 165.66 310.25 165.68 310.25
  Z
  M 166.61 310.50
  Q 167.13 310.76 167.53 310.68
  A 0.37 0.32 53.3 0 0 167.58 310.04
  Q 167.23 309.81 166.61 310.14
  A 0.20 0.20 0.0 0 0 166.61 310.50
  Z"
/>
<path d="
  M 300.40 256.24
  A 0.40 0.40 0.0 0 1 300.74 256.84
  L 289.65 276.05
  A 0.98 0.97 14.7 0 1 288.80 276.54
  L 247.85 276.54
  A 0.59 0.58 -75.0 0 0 247.34 276.84
  L 239.59 290.27
  A 0.45 0.44 -74.8 0 0 239.97 290.94
  L 280.20 290.94
  A 0.51 0.51 0.0 0 1 280.64 291.71
  L 269.58 310.88
  A 1.07 1.06 -74.7 0 1 268.66 311.41
  L 227.86 311.41
  A 1.01 1.00 15.0 0 0 226.99 311.91
  L 209.31 342.54
  A 1.45 1.44 -74.8 0 1 208.06 343.26
  L 185.60 343.26
  A 0.28 0.28 0.0 0 1 185.36 342.85
  Q 222.35 279.16 229.20 267.15
  Q 235.39 256.29 246.96 256.26
  Q 287.78 256.14 300.40 256.24
  Z"
/>
<path d="
  M 342.64 311.34
  A 0.30 0.30 0.0 0 1 342.90 311.79
  L 325.02 342.76
  A 0.94 0.93 -75.0 0 1 324.21 343.23
  Q 277.71 343.29 271.84 343.17
  Q 269.63 343.12 267.42 340.85
  Q 263.26 336.57 266.18 331.42
  Q 271.45 322.12 304.27 265.57
  Q 309.59 256.42 321.03 256.28
  Q 329.09 256.18 374.31 256.21
  A 0.41 0.41 0.0 0 1 374.67 256.83
  L 355.20 290.55
  A 0.74 0.73 14.6 0 1 354.56 290.92
  L 332.25 290.92
  A 0.40 0.40 0.0 0 1 331.91 290.32
  L 339.48 277.21
  A 0.50 0.49 -75.2 0 0 339.05 276.47
  L 322.06 276.47
  A 1.21 1.19 -74.5 0 0 321.03 277.06
  L 294.94 322.27
  A 0.43 0.43 0.0 0 0 295.31 322.91
  L 312.51 322.91
  A 0.88 0.87 14.7 0 0 313.27 322.47
  L 319.31 312.01
  A 1.32 1.32 0.0 0 1 320.46 311.34
  L 342.64 311.34
  Z"
/>
<path d="
  M 422.01 276.96
  A 0.29 0.29 0.0 0 0 421.76 276.52
  L 404.35 276.52
  A 0.97 0.96 -74.7 0 0 403.52 277.00
  L 399.06 284.72
  A 1.08 1.07 -75.0 0 1 398.13 285.26
  L 375.86 285.26
  A 0.36 0.35 15.5 0 1 375.55 284.72
  Q 378.52 279.70 386.04 266.55
  Q 391.97 256.15 403.95 256.18
  Q 438.12 256.25 444.99 256.22
  Q 446.63 256.22 448.26 257.10
  C 453.85 260.12 452.32 265.62 449.33 270.34
  Q 448.98 270.89 425.91 310.79
  A 1.09 1.07 14.7 0 1 424.97 311.33
  L 384.04 311.33
  A 0.71 0.69 14.6 0 0 383.43 311.68
  L 377.36 322.18
  A 0.47 0.47 0.0 0 0 377.77 322.88
  L 418.11 322.88
  A 0.46 0.46 0.0 0 1 418.51 323.57
  L 407.43 342.75
  A 1.01 1.00 -75.0 0 1 406.56 343.26
  L 342.38 343.26
  A 0.39 0.38 -75.0 0 1 342.05 342.68
  Q 355.58 319.12 366.40 300.69
  Q 372.16 290.86 384.26 290.85
  Q 394.36 290.83 413.48 290.88
  A 0.85 0.84 14.3 0 0 414.22 290.45
  L 422.01 276.96
  Z"
/>
<path d="
  M 530.62 256.16
  A 0.49 0.49 0.0 0 1 531.04 256.89
  L 520.02 275.97
  A 1.12 1.11 14.7 0 1 519.05 276.53
  L 478.28 276.53
  A 0.97 0.96 -75.0 0 0 477.44 277.02
  L 469.81 290.23
  A 0.51 0.50 -74.8 0 0 470.24 290.99
  Q 490.26 291.05 495.36 290.91
  C 502.05 290.74 507.19 293.14 505.44 300.64
  A 3.76 3.59 -24.2 0 1 505.01 301.70
  Q 504.05 303.30 490.95 326.26
  Q 486.01 334.94 482.70 337.64
  Q 475.76 343.31 465.75 343.30
  Q 444.17 343.26 416.12 343.30
  A 0.31 0.31 0.0 0 1 415.86 342.83
  Q 441.09 299.26 458.35 269.38
  Q 462.56 262.09 464.99 260.27
  C 469.45 256.92 473.00 256.23 479.30 256.23
  Q 515.03 256.20 530.62 256.16
  Z
  M 475.65 312.06
  A 0.48 0.48 0.0 0 0 475.24 311.34
  L 457.81 311.34
  A 0.48 0.48 0.0 0 0 457.39 311.58
  L 451.26 322.21
  A 0.48 0.48 0.0 0 0 451.67 322.93
  L 469.10 322.93
  A 0.48 0.48 0.0 0 0 469.52 322.69
  L 475.65 312.06
  Z"
/>
<rect x="-2.41" y="-2.38" transform="translate(107.22,313.90) rotate(0.2)" width="4.82" height="4.76" rx="0.66"/>
<rect x="118.09" y="311.46" width="4.76" height="10.56" rx="1.08"/>
<rect x="131.71" y="311.52" width="4.68" height="4.40" rx="0.65"/>
</g>
</svg>
