<?xml version="1.0" encoding="UTF-8" standalone="no"?>
<!DOCTYPE svg PUBLIC "-//W3C//DTD SVG 1.1//EN" "http://www.w3.org/Graphics/SVG/1.1/DTD/svg11.dtd">
<svg xmlns="http://www.w3.org/2000/svg" version="1.1" viewBox="0.00 0.00 860.00 432.00">
<g fill="#ffffff">
<path d="
  M 601.67 328.64
  A 0.39 0.39 0.0 0 1 601.28 329.03
  L 278.98 329.03
  A 0.39 0.39 0.0 0 1 278.59 328.64
  L 278.59 27.60
  A 0.39 0.39 0.0 0 1 278.98 27.21
  L 601.28 27.21
  A 0.39 0.39 0.0 0 1 601.67 27.60
  L 601.67 328.64
  Z
  M 432.69 38.80
  L 291.89 38.80
  A 0.76 0.75 -90.0 0 0 291.14 39.56
  L 291.14 314.36
  A 0.61 0.61 0.0 0 0 291.75 314.97
  L 355.46 314.97
  A 0.63 0.62 2.5 0 0 356.09 314.40
  C 356.23 312.94 356.27 311.41 356.66 309.94
  Q 359.27 300.16 362.84 286.10
  A 0.69 0.69 0.0 0 0 362.65 285.43
  L 359.13 281.91
  A 1.54 1.53 36.0 0 1 358.84 280.13
  C 363.55 270.77 366.06 266.25 367.79 257.29
  Q 368.36 254.37 372.57 246.09
  Q 372.94 245.37 376.95 241.84
  A 0.74 0.50 -15.3 0 0 377.08 241.69
  L 381.86 234.57
  A 1.24 1.23 -39.3 0 0 381.98 233.41
  C 379.52 227.52 377.79 223.53 379.16 217.22
  Q 381.69 205.58 383.06 201.52
  A 1.20 1.19 -53.3 0 0 382.91 200.46
  Q 382.83 200.34 381.92 199.15
  C 378.52 194.69 381.29 185.58 383.22 180.63
  A 1.29 1.28 -84.5 0 1 384.18 179.83
  L 386.09 179.45
  A 0.82 0.82 0.0 0 0 386.75 178.55
  C 385.54 169.22 384.14 160.71 384.42 151.42
  A 1.28 1.28 0.0 0 1 385.46 150.20
  L 391.56 149.09
  A 1.07 1.07 0.0 0 0 392.20 147.36
  C 391.73 146.74 386.49 145.71 382.54 144.76
  A 1.40 1.40 0.0 0 1 381.47 143.44
  Q 381.03 129.38 383.73 116.71
  A 1.58 1.55 75.9 0 1 384.23 115.86
  C 386.66 113.76 391.25 113.82 394.58 113.72
  A 1.42 1.42 0.0 0 0 395.55 111.30
  L 393.56 109.31
  A 1.13 1.08 23.5 0 1 393.23 108.53
  Q 393.12 88.44 403.43 71.16
  A 2.15 2.11 -89.0 0 1 404.17 70.43
  Q 405.78 69.50 408.01 69.00
  Q 416.09 67.17 421.60 66.90
  A 1.20 1.16 -23.0 0 1 422.48 67.24
  L 424.43 69.19
  A 0.60 0.59 -40.1 0 0 425.19 69.25
  Q 426.67 68.19 426.97 67.35
  A 1.59 1.58 46.4 0 0 426.99 66.34
  Q 425.17 60.72 425.14 59.84
  Q 424.72 47.55 432.90 39.32
  A 0.31 0.30 -67.5 0 0 432.69 38.80
  Z
  M 546.17 73.29
  L 547.29 64.39
  A 0.98 0.98 0.0 0 1 547.88 63.61
  Q 549.15 63.06 550.17 63.56
  A 0.99 0.98 -79.0 0 1 550.73 64.40
  Q 550.83 66.66 551.82 71.78
  C 552.65 76.12 559.83 76.41 563.26 76.36
  Q 575.87 76.16 580.49 76.13
  A 0.81 0.81 0.0 0 1 581.30 76.94
  L 581.30 80.87
  A 0.82 0.81 -90.0 0 1 580.49 81.69
  Q 573.17 81.65 565.16 81.39
  C 561.25 81.26 558.04 81.61 554.52 81.84
  Q 553.40 81.91 536.59 84.23
  C 531.03 85.00 525.74 84.89 520.14 85.65
  A 4.71 4.62 22.6 0 0 518.04 86.49
  Q 516.20 87.84 511.59 90.81
  Q 508.42 92.86 508.63 96.48
  A 1.31 1.30 15.9 0 0 509.18 97.46
  L 510.42 98.34
  A 1.99 1.94 -79.4 0 1 511.20 99.51
  Q 511.88 102.36 511.35 105.17
  A 1.36 1.30 74.4 0 1 510.97 105.88
  L 506.95 109.90
  A 3.72 3.58 -12.9 0 0 506.16 111.11
  Q 502.77 119.55 499.70 126.91
  C 498.00 131.00 497.48 133.39 492.95 133.04
  Q 486.89 132.57 481.63 133.84
  A 1.39 1.39 0.0 0 1 480.77 133.78
  Q 478.92 133.05 476.91 131.82
  Q 470.02 127.61 463.02 122.80
  A 0.99 0.99 0.0 0 0 461.51 123.38
  L 460.46 127.61
  A 0.81 0.80 18.5 0 0 460.93 128.54
  Q 463.86 129.79 466.60 131.66
  C 469.03 133.32 470.72 134.21 470.27 137.23
  Q 468.15 151.50 463.56 164.34
  C 461.65 169.66 456.59 166.73 454.41 169.98
  Q 453.12 171.89 454.88 174.35
  Q 465.83 189.61 473.38 207.88
  Q 476.39 215.16 479.33 222.70
  A 1.07 1.05 -10.4 0 0 480.32 223.37
  L 483.75 223.37
  A 0.63 0.62 -87.1 0 1 484.37 224.06
  Q 484.08 226.82 485.54 230.28
  C 486.74 233.11 486.48 236.01 486.04 238.52
  Q 484.25 248.57 481.09 262.24
  A 6.04 6.03 46.0 0 0 481.05 264.81
  L 482.19 270.64
  A 3.66 3.62 -42.2 0 1 482.09 272.44
  L 479.92 279.54
  A 4.24 4.23 52.7 0 0 479.74 280.89
  L 480.19 295.66
  A 3.90 3.89 26.7 0 0 480.88 297.74
  C 483.86 302.05 488.12 308.06 492.79 309.62
  Q 498.85 311.64 501.81 314.28
  A 3.00 2.99 65.6 0 0 503.79 315.03
  L 588.74 315.03
  A 0.52 0.52 0.0 0 0 589.26 314.51
  L 589.26 39.73
  A 0.89 0.88 0.0 0 0 588.37 38.85
  L 461.39 38.85
  A 0.50 0.49 51.7 0 0 461.28 39.83
  L 466.15 41.04
  A 1.00 0.99 14.0 0 1 466.88 42.24
  L 466.49 43.83
  A 2.49 2.48 42.4 0 0 466.56 45.29
  C 468.35 50.41 469.01 53.50 468.43 59.92
  C 468.12 63.44 464.38 63.70 462.03 64.62
  A 0.91 0.90 -17.6 0 0 461.48 65.68
  Q 462.63 70.18 461.51 72.82
  A 0.78 0.78 0.0 0 0 462.37 73.89
  L 474.95 71.42
  A 1.58 1.57 -2.0 0 0 476.21 70.07
  L 476.90 64.60
  A 0.84 0.84 0.0 0 1 477.73 63.87
  L 481.12 63.87
  A 0.79 0.79 0.0 0 1 481.91 64.66
  L 481.91 70.74
  A 0.92 0.92 0.0 0 0 482.83 71.66
  L 541.72 71.66
  A 2.67 2.65 -27.1 0 1 543.26 72.15
  L 545.37 73.65
  A 0.52 0.51 -68.8 0 0 546.17 73.29
  Z
  M 495.20 93.74
  A 0.54 0.54 0.0 0 0 494.57 93.08
  Q 491.05 93.82 486.77 94.20
  C 485.42 94.32 483.73 95.76 484.52 97.37
  Q 486.20 100.78 487.91 103.24
  A 1.15 1.15 0.0 0 0 489.44 103.57
  C 492.52 101.72 494.47 96.61 495.20 93.74
  Z
  M 455.01 314.98
  A 0.44 0.43 -86.2 0 0 455.44 314.60
  Q 456.09 309.29 457.75 303.05
  C 458.22 301.26 459.68 299.58 459.58 297.75
  Q 459.18 290.62 458.67 284.09
  A 7.08 7.05 34.1 0 0 458.34 282.39
  Q 453.88 268.67 451.90 256.53
  Q 451.52 254.21 451.81 251.53
  A 2.67 2.65 -24.8 0 1 452.28 250.27
  L 454.25 247.49
  A 3.92 3.82 72.3 0 0 454.76 246.47
  L 457.01 239.22
  A 0.93 0.92 -70.8 0 0 456.46 238.08
  L 443.39 233.04
  A 2.37 2.36 89.0 0 1 442.09 231.78
  Q 436.23 218.32 432.32 209.70
  Q 431.08 206.95 428.28 203.12
  A 1.37 1.36 75.0 0 0 427.35 202.58
  L 422.98 202.02
  A 1.07 1.05 20.9 0 0 422.00 202.45
  L 415.78 211.25
  A 3.34 3.32 -20.6 0 0 415.28 212.34
  L 409.24 236.70
  A 2.11 2.10 -2.9 0 1 407.90 238.18
  C 405.75 238.94 405.10 240.01 403.77 241.60
  Q 398.65 247.74 396.05 254.78
  A 2.77 2.73 -37.4 0 0 395.89 255.91
  C 396.04 258.15 396.95 260.59 396.39 263.21
  Q 396.11 264.51 394.51 266.87
  Q 391.20 271.73 389.82 276.14
  A 1.29 1.06 -39.3 0 0 389.76 276.44
  L 388.58 285.79
  A 1.28 1.26 88.5 0 1 387.56 286.88
  L 382.09 287.96
  A 1.81 1.80 5.1 0 0 380.75 289.08
  L 376.97 298.87
  A 6.53 6.42 56.1 0 0 376.53 301.22
  L 376.53 313.05
  A 1.93 1.93 0.0 0 0 378.46 314.98
  L 455.01 314.98
  Z"
/>
<path d="
  M 295.30 380.30
  Q 295.33 393.59 295.38 396.52
  A 0.47 0.46 89.5 0 0 295.84 396.98
  L 344.60 396.98
  A 0.57 0.56 5.4 0 1 345.16 397.65
  Q 343.54 405.94 336.89 409.14
  Q 334.01 410.53 327.40 410.49
  Q 305.49 410.36 297.63 410.53
  Q 290.30 410.68 287.58 409.24
  Q 282.53 406.58 280.34 401.73
  Q 279.30 399.42 279.25 391.11
  Q 279.22 386.14 279.21 380.34
  Q 279.20 374.53 279.20 369.56
  Q 279.22 361.25 280.25 358.94
  Q 282.41 354.08 287.45 351.40
  Q 290.17 349.94 297.50 350.06
  Q 305.36 350.20 327.27 349.97
  Q 333.88 349.90 336.76 351.28
  Q 343.43 354.45 345.08 362.73
  A 0.57 0.56 -5.7 0 1 344.53 363.40
  L 295.77 363.62
  A 0.47 0.46 -89.8 0 0 295.31 364.08
  Q 295.27 367.01 295.30 380.30
  Z"
/>
<path d="
  M 356.49 398.02
  A 0.37 0.37 0.0 0 1 356.85 397.58
  L 408.78 397.58
  A 0.74 0.73 -0.0 0 0 409.52 396.85
  L 409.52 387.03
  A 0.47 0.47 0.0 0 0 409.05 386.56
  Q 393.27 386.56 371.54 386.59
  Q 360.26 386.60 356.58 375.09
  A 1.57 1.50 -56.2 0 1 356.49 374.57
  L 356.52 362.53
  A 1.40 1.26 -41.9 0 1 356.55 362.25
  Q 359.79 350.05 371.76 350.12
  Q 395.36 350.27 400.67 350.12
  Q 411.52 349.81 414.67 351.36
  Q 421.15 354.56 423.02 362.41
  A 0.53 0.52 -6.9 0 1 422.51 363.06
  L 371.59 363.06
  A 0.46 0.45 -0.0 0 0 371.13 363.51
  L 371.13 372.85
  A 0.80 0.80 0.0 0 0 371.93 373.65
  Q 386.97 373.72 406.82 373.61
  Q 413.11 373.57 415.97 374.99
  Q 422.00 377.97 423.70 384.32
  C 424.51 387.34 424.18 391.27 424.20 394.99
  C 424.24 401.28 421.46 406.50 415.85 409.23
  Q 412.98 410.63 406.46 410.60
  Q 381.58 410.50 374.20 410.65
  Q 367.84 410.78 365.01 409.39
  Q 358.12 406.01 356.49 398.02
  Z"
/>
<path d="
  M 509.13 385.43
  Q 508.98 385.44 490.45 385.49
  Q 480.51 385.52 477.85 375.84
  A 0.36 0.35 82.4 0 1 478.19 375.39
  L 522.05 375.39
  A 0.47 0.47 0.0 0 1 522.52 375.86
  Q 522.46 384.80 522.54 396.76
  C 522.59 402.58 518.97 407.87 513.49 409.86
  Q 511.23 410.68 505.94 410.65
  Q 482.75 410.49 472.70 410.64
  Q 465.36 410.75 462.47 409.39
  Q 454.31 405.53 454.33 395.25
  Q 454.34 386.74 454.36 362.61
  A 5.79 5.73 53.8 0 1 454.61 360.93
  Q 457.93 350.19 469.04 350.24
  Q 481.49 350.31 499.60 350.18
  Q 511.09 350.11 513.30 350.91
  Q 519.66 353.23 522.38 360.79
  A 0.75 0.75 0.0 0 1 521.67 361.79
  L 467.61 361.79
  A 0.45 0.44 -90.0 0 0 467.17 362.24
  L 467.17 398.15
  A 0.65 0.64 90.0 0 0 467.81 398.80
  L 509.00 398.80
  A 0.67 0.67 0.0 0 0 509.67 398.12
  L 509.63 385.90
  A 0.48 0.48 0.0 0 0 509.13 385.43
  Z"
/>
<path d="
  M 600.07 396.76
  A 13.85 13.85 0.0 0 1 586.22 410.61
  L 548.30 410.61
  A 13.85 13.85 0.0 0 1 534.45 396.76
  L 534.45 364.08
  A 13.85 13.85 0.0 0 1 548.30 350.23
  L 586.22 350.23
  A 13.85 13.85 0.0 0 1 600.07 364.08
  L 600.07 396.76
  Z
  M 587.17 361.74
  A 0.41 0.41 0.0 0 0 586.76 361.33
  L 547.76 361.33
  A 0.41 0.41 0.0 0 0 547.35 361.74
  L 547.35 399.16
  A 0.41 0.41 0.0 0 0 547.76 399.57
  L 586.76 399.57
  A 0.41 0.41 0.0 0 0 587.17 399.16
  L 587.17 361.74
  Z"
/>
<rect x="-5.02" y="-5.02" transform="translate(439.61,369.85) rotate(0.2)" width="10.04" height="10.04" rx="0.46"/>
<rect x="-5.04" y="-5.03" transform="translate(439.60,390.63) rotate(-0.1)" width="10.08" height="10.06" rx="0.41"/>
</g>
<g fill="#fa9d1b">
<path d="
  M 546.17 73.29
  A 0.52 0.51 -68.8 0 1 545.37 73.65
  L 543.26 72.15
  A 2.67 2.65 -27.1 0 0 541.72 71.66
  L 482.83 71.66
  A 0.92 0.92 0.0 0 1 481.91 70.74
  L 481.91 64.66
  A 0.79 0.79 0.0 0 0 481.12 63.87
  L 477.73 63.87
  A 0.84 0.84 0.0 0 0 476.90 64.60
  L 476.21 70.07
  A 1.58 1.57 -2.0 0 1 474.95 71.42
  L 462.37 73.89
  A 0.78 0.78 0.0 0 1 461.51 72.82
  Q 462.63 70.18 461.48 65.68
  A 0.91 0.90 -17.6 0 1 462.03 64.62
  C 464.38 63.70 468.12 63.44 468.43 59.92
  C 469.01 53.50 468.35 50.41 466.56 45.29
  A 2.49 2.48 42.4 0 1 466.49 43.83
  L 466.88 42.24
  A 1.00 0.99 14.0 0 0 466.15 41.04
  L 461.28 39.83
  A 0.50 0.49 51.7 0 1 461.39 38.85
  L 588.37 38.85
  A 0.89 0.88 -0.0 0 1 589.26 39.73
  L 589.26 314.51
  A 0.52 0.52 0.0 0 1 588.74 315.03
  L 503.79 315.03
  A 3.00 2.99 65.6 0 1 501.81 314.28
  Q 498.85 311.64 492.79 309.62
  C 488.12 308.06 483.86 302.05 480.88 297.74
  A 3.90 3.89 26.7 0 1 480.19 295.66
  L 479.74 280.89
  A 4.24 4.23 52.7 0 1 479.92 279.54
  L 482.09 272.44
  A 3.66 3.62 -42.2 0 0 482.19 270.64
  L 481.05 264.81
  A 6.04 6.03 46.0 0 1 481.09 262.24
  Q 484.25 248.57 486.04 238.52
  C 486.48 236.01 486.74 233.11 485.54 230.28
  Q 484.08 226.82 484.37 224.06
  A 0.63 0.62 -87.1 0 0 483.75 223.37
  L 480.32 223.37
  A 1.07 1.05 -10.4 0 1 479.33 222.70
  Q 476.39 215.16 473.38 207.88
  Q 465.83 189.61 454.88 174.35
  Q 453.12 171.89 454.41 169.98
  C 456.59 166.73 461.65 169.66 463.56 164.34
  Q 468.15 151.50 470.27 137.23
  C 470.72 134.21 469.03 133.32 466.60 131.66
  Q 463.86 129.79 460.93 128.54
  A 0.81 0.80 18.5 0 1 460.46 127.61
  L 461.51 123.38
  A 0.99 0.99 0.0 0 1 463.02 122.80
  Q 470.02 127.61 476.91 131.82
  Q 478.92 133.05 480.77 133.78
  A 1.39 1.39 0.0 0 0 481.63 133.84
  Q 486.89 132.57 492.95 133.04
  C 497.48 133.39 498.00 131.00 499.70 126.91
  Q 502.77 119.55 506.16 111.11
  A 3.72 3.58 -12.9 0 1 506.95 109.90
  L 510.97 105.88
  A 1.36 1.30 74.4 0 0 511.35 105.17
  Q 511.88 102.36 511.20 99.51
  A 1.99 1.94 -79.4 0 0 510.42 98.34
  L 509.18 97.46
  A 1.31 1.30 15.9 0 1 508.63 96.48
  Q 508.42 92.86 511.59 90.81
  Q 516.20 87.84 518.04 86.49
  A 4.71 4.62 22.6 0 1 520.14 85.65
  C 525.74 84.89 531.03 85.00 536.59 84.23
  Q 553.40 81.91 554.52 81.84
  C 558.04 81.61 561.25 81.26 565.16 81.39
  Q 573.17 81.65 580.49 81.69
  A 0.82 0.81 -90.0 0 0 581.30 80.87
  L 581.30 76.94
  A 0.81 0.81 0.0 0 0 580.49 76.13
  Q 575.87 76.16 563.26 76.36
  C 559.83 76.41 552.65 76.12 551.82 71.78
  Q 550.83 66.66 550.73 64.40
  A 0.99 0.98 -79.0 0 0 550.17 63.56
  Q 549.15 63.06 547.88 63.61
  A 0.98 0.98 0.0 0 0 547.29 64.39
  L 546.17 73.29
  Z"
/>
<path d="
  M 495.20 93.74
  C 494.47 96.61 492.52 101.72 489.44 103.57
  A 1.15 1.15 0.0 0 1 487.91 103.24
  Q 486.20 100.78 484.52 97.37
  C 483.73 95.76 485.42 94.32 486.77 94.20
  Q 491.05 93.82 494.57 93.08
  A 0.54 0.54 0.0 0 1 495.20 93.74
  Z"
/>
</g>
</svg>
